<svg width="97" height="144" viewBox="0 0 97 144" fill="none" xmlns="http://www.w3.org/2000/svg">
<path d="M13.7089 35.4293L62.0815 7.78414C62.17 7.73357 62.1696 7.60594 62.0808 7.5559L48.7038 0.0169334C48.6638 -0.00556962 48.6151 -0.00564971 48.575 0.016726L0.067194 27.1494C0.0257005 27.1725 0 27.2163 0 27.2639V70.3457C0 70.3566 0.00141874 70.3678 0.00408811 70.3781C0.60384 72.7358 1.68404 73.2042 4.72216 72.7315C4.73718 72.7291 4.75214 72.7241 4.76547 72.7168L75.925 33.6928C79.484 31.9185 84.8226 41.3815 82.4502 43.1558L0.0647191 91.6162C0.0246181 91.6397 0 91.6827 0 91.7288V105.622C0 105.723 0.109318 105.785 0.196896 105.735L96.62 50.291C96.6607 50.2676 96.6857 50.2242 96.6857 50.1772V27.2632C96.6857 27.2161 96.6607 27.1725 96.6192 27.1491L75.9896 15.3949C75.9496 15.3721 75.9005 15.3719 75.8603 15.3945L13.8384 50.1435C13.7508 50.1925 13.6429 50.1294 13.6429 50.029V35.5432C13.6429 35.4962 13.668 35.4526 13.7089 35.4293Z" fill="#946345"/>
<path d="M96.6858 82.706V67.0386C96.6858 66.9381 96.577 66.8749 96.4894 66.9244L4.94442 118.747C4.8562 118.797 4.85546 118.924 4.94308 118.975L47.3874 143.662C47.4282 143.686 47.4785 143.686 47.5192 143.662L96.6201 115.349C96.6607 115.326 96.6858 115.283 96.6858 115.236V100.161C96.6858 100.06 96.5762 99.9968 96.4886 100.048L47.5254 128.282C47.4814 128.307 47.4266 128.304 47.3848 128.275L33.9811 118.978C33.9019 118.923 33.9069 118.804 33.9906 118.757L96.6201 82.8202C96.6607 82.7967 96.6858 82.7529 96.6858 82.706Z" fill="#946345"/>
</svg>
